<svg width="29" height="30" viewBox="0 0 29 30" fill="none" xmlns="http://www.w3.org/2000/svg">
<path d="M9.96694 27.5342H5.18109C2.80002 27.5342 1.65094 26.4325 1.65094 24.1581V5.44116C1.65094 3.16669 2.81186 2.065 5.18109 2.065H9.96694C12.348 2.065 13.4971 3.16669 13.4971 5.44116V24.1581C13.4971 26.4325 12.3362 27.5342 9.96694 27.5342ZM5.18109 3.84193C3.67663 3.84193 3.42786 4.24469 3.42786 5.44116V24.1581C3.42786 25.3545 3.67663 25.7573 5.18109 25.7573H9.96694C11.4714 25.7573 11.7202 25.3545 11.7202 24.1581V5.44116C11.7202 4.24469 11.4714 3.84193 9.96694 3.84193H5.18109Z" fill="black"/>
<path d="M23.5894 16.8727H18.8035C16.4225 16.8727 15.2734 15.771 15.2734 13.4965V5.44116C15.2734 3.16669 16.4343 2.065 18.8035 2.065H23.5894C25.9705 2.065 27.1195 3.16669 27.1195 5.44116V13.4965C27.1195 15.771 25.9586 16.8727 23.5894 16.8727ZM18.8035 3.84193C17.2991 3.84193 17.0503 4.24469 17.0503 5.44116V13.4965C17.0503 14.693 17.2991 15.0958 18.8035 15.0958H23.5894C25.0938 15.0958 25.3426 14.693 25.3426 13.4965V5.44116C25.3426 4.24469 25.0938 3.84193 23.5894 3.84193H18.8035Z" fill="black"/>
<path d="M23.5894 27.5337H18.8035C16.4225 27.5337 15.2734 26.432 15.2734 24.1575V22.0252C15.2734 19.7507 16.4343 18.649 18.8035 18.649H23.5894C25.9705 18.649 27.1195 19.7507 27.1195 22.0252V24.1575C27.1195 26.432 25.9586 27.5337 23.5894 27.5337ZM18.8035 20.426C17.2991 20.426 17.0503 20.8287 17.0503 22.0252V24.1575C17.0503 25.354 17.2991 25.7567 18.8035 25.7567H23.5894C25.0938 25.7567 25.3426 25.354 25.3426 24.1575V22.0252C25.3426 20.8287 25.0938 20.426 23.5894 20.426H18.8035Z" fill="black"/>
</svg>
